<svg width="1943" height="1651" viewBox="0 0 1943 1651" fill="none" xmlns="http://www.w3.org/2000/svg">
<path d="M1707.01 377.231C1706.4 377.741 1705.68 378.252 1705.07 378.762C1702.21 375.292 1699.35 371.822 1696.49 368.352C1696.7 368.249 1696.8 368.045 1697 367.943C1700.37 371.005 1703.74 374.169 1707.11 377.231M1864.43 687.809C1865.45 687.605 1866.57 687.401 1867.59 687.299C1869.12 696.587 1870.55 705.874 1872.08 715.162C1871.17 715.366 1870.14 715.468 1869.23 715.672C1867.59 706.384 1866.06 697.097 1864.43 687.911M1875.25 763.642C1876.17 777.318 1877.09 790.995 1878.01 804.569C1876.47 804.569 1875.04 804.773 1873.51 804.773C1870.35 791.199 1872.19 777.42 1875.25 763.54M1453.94 1575.15C1460.98 1583.82 1457 1586.07 1451.28 1588.11C1433.72 1594.03 1416.37 1600.36 1398.91 1606.48C1364.61 1618.42 1329.8 1626.18 1293.05 1622.5C1285.9 1621.79 1278.45 1623.01 1271.2 1622.91C1243.13 1622.4 1214.85 1623.73 1187.08 1620.56C1164.93 1618.11 1143.39 1610.36 1121.64 1604.54C1105.41 1600.15 1089.59 1593.21 1073.05 1591.07C1044.97 1587.39 1020.68 1575.15 996.279 1562.39C957.077 1541.87 923.797 1513.19 889.904 1485.43C886.943 1482.98 881.533 1478.29 880.92 1478.8C872.549 1486.04 869.793 1475.84 864.791 1473.8C861.83 1472.57 859.788 1469.41 857.338 1467.06C839.065 1449.61 819.158 1433.48 802.824 1414.29C787 1395.82 764.643 1381.84 759.13 1355.2C758.007 1349.99 751.168 1346.01 747.186 1341.22C723.094 1311.62 699.103 1281.82 674.909 1252.22C672.152 1248.75 667.456 1242.93 665.312 1243.64C654.695 1247.01 651.837 1238.24 647.141 1233.13C636.115 1221.09 625.09 1209.05 615.188 1196.08C570.678 1138.62 519.124 1087.39 471.551 1032.58C454.605 1013.08 436.229 995.019 418.772 975.933C398.967 954.398 373.65 942.967 345.78 937.66C338.327 936.231 331.794 934.802 325.975 930.107C319.441 924.8 312.908 919.492 306.476 913.981C281.159 892.65 255.943 871.216 230.728 849.681C227.359 846.823 221.948 842.435 222.459 839.679C224.194 830.391 216.946 826.819 213.169 821.001C207.35 812.02 198.264 804.059 195.916 794.465C193.67 784.973 188.872 778.441 183.768 771.195C181.828 768.439 178.765 765.989 177.949 762.927C173.661 746.189 162.227 733.533 153.039 719.857C105.263 648.413 79.3324 569.314 75.0448 483.989C72.6968 436.428 75.7594 388.458 78.9241 340.794C81.0679 308.236 89.1328 276.393 103.221 246.59C112.102 227.811 122.311 209.643 130.682 190.66C141.503 166.062 156.51 145.14 176.621 126.972C211.535 95.4348 251.145 72.3685 296.778 61.4478C328.935 53.793 361.603 47.6692 394.373 43.6887C454.503 36.3402 514.836 29.502 575.68 31.033C664.496 33.2783 753.413 31.033 842.025 37.8712C886.331 41.2393 930.433 45.832 973.922 55.0177C1003.02 61.1415 1032.11 67.1632 1061 74.3076C1116.54 87.9841 1172.38 100.946 1227.3 116.868C1261.71 126.87 1294.78 141.363 1328.37 154.223C1349.3 162.286 1370.22 170.553 1390.74 179.535C1397.38 182.494 1406.67 186.883 1408.2 192.395C1410.34 199.845 1414.84 202.091 1419.84 204.846C1427.09 208.827 1434.74 212.195 1442.2 215.869C1508.14 247.713 1571.13 284.354 1630.55 327.424C1673.52 358.656 1713.13 392.643 1745.39 435.407C1786.74 490.317 1819.1 549.513 1840.64 614.732C1860.24 674.439 1869.53 735.881 1869.43 798.752C1869.43 806.508 1868.41 814.469 1874.84 821.001C1879.94 826.105 1877.19 831.514 1874.84 838.25C1873.21 834.78 1872.39 833.045 1870.45 828.962V856.928C1872.29 852.845 1873.31 850.6 1875.76 845.292C1876.88 851.212 1878.01 853.866 1877.9 856.417C1875.56 900.713 1873.21 945.008 1870.55 989.303C1869.94 999.918 1868.82 1010.53 1867.59 1021.15C1866.37 1031.76 1864.53 1042.27 1863 1052.79C1861.57 1062.79 1860.45 1072.89 1858.61 1082.79C1856.67 1093.2 1855.14 1104.02 1851.36 1113.72C1847.69 1122.9 1844.21 1131.78 1843.6 1141.79C1843.6 1143.42 1842.48 1144.95 1841.76 1146.48C1834.31 1163.01 1833.19 1182.3 1819.51 1196.08C1818.69 1217.41 1803.99 1232.83 1795.42 1250.79C1784.8 1273.04 1771.83 1294.17 1758.77 1315.19C1750.8 1328.05 1741 1339.79 1731.61 1351.73C1713.85 1374.29 1696.29 1396.94 1677.81 1418.79C1646.88 1455.32 1610.74 1486.35 1573.17 1516.15C1548.26 1535.85 1522.03 1552.69 1493.95 1566.98C1482.72 1572.7 1471.29 1578.72 1453.83 1575.04M13.9967 297.009C4.60468 310.278 9.91321 326.506 5.01303 340.692C4.70677 341.611 5.01303 342.938 5.42138 343.958C6.64642 348.449 7.87146 352.94 9.09651 357.533C0.419106 353.961 4.70677 361.819 4.50259 363.657C-0.397589 409.483 -1.21429 455.717 1.64415 501.544C4.19633 543.288 10.832 585.031 25.7367 624.428C41.8665 667.192 63.3048 707.405 87.6015 746.393C104.344 773.134 125.374 796.098 145.281 820.083C154.775 831.514 163.146 843.864 172.334 855.601C181.011 866.726 189.382 878.259 199.285 888.159C221.336 910.307 245.428 930.413 271.869 947.151C296.88 963.073 323.219 976.954 347.924 993.284C369.362 1007.47 392.434 1019.21 411.32 1037.38C419.589 1045.23 430.716 1050.24 441.027 1055.85C456.646 1064.42 468.08 1077.49 479.616 1090.45C504.321 1118.11 529.23 1145.66 553.221 1173.94C603.243 1233.23 652.347 1293.35 702.574 1352.55C719.214 1372.14 737.896 1390 755.557 1408.68C766.276 1420.01 776.281 1432.16 787.715 1442.67C816.197 1468.59 842.434 1496.97 874.387 1518.91C882.145 1524.22 888.781 1531.26 896.233 1537.08C957.792 1585.15 1026.8 1618.01 1102.76 1636.18C1125.52 1641.59 1148.69 1645.77 1171.77 1649.65C1178.1 1650.67 1184.94 1648.22 1191.57 1648.32C1205.66 1648.32 1219.75 1648.53 1233.73 1649.55C1293.56 1653.73 1351.54 1645.88 1407.69 1624.54C1430.25 1615.97 1453.12 1608.11 1475.99 1600.46C1480.27 1599.03 1485.58 1600.46 1490.38 1600.56C1495.59 1600.56 1500.9 1600.56 1507.53 1600.56C1505.59 1595.15 1504.26 1591.68 1502.63 1587.09C1518.25 1578.41 1533.77 1569.43 1549.59 1560.96C1603.19 1532.48 1650.96 1496.56 1693.84 1453.59C1745.8 1401.64 1791.95 1344.99 1831.66 1283.35C1855.14 1247.01 1872.59 1207.41 1888.72 1167.1C1901.49 1135.15 1912.92 1103 1920.37 1069.53C1930.89 1022.78 1935.48 975.219 1938.13 927.351C1941.61 866.113 1943.65 804.977 1941.2 743.535C1939.67 703.935 1935.99 665.049 1927.31 626.571C1925.78 619.733 1921.6 613.507 1918.84 606.975C1917.1 602.893 1914.96 598.81 1914.04 594.421C1897.81 517.262 1859.12 451.227 1812.98 388.764C1795.11 364.575 1775.31 342.53 1751.52 324.26C1703.44 287.313 1654.84 250.877 1601.04 222.401C1581.14 211.889 1559.9 203.928 1540.61 192.497C1507.33 172.799 1470.37 160.653 1436.89 141.669C1392.58 116.562 1344.5 100.64 1296.72 84.5139C1261.81 72.7767 1225.26 65.4281 1189.43 56.4465C1162.78 49.8124 1136.14 42.6681 1109.19 37.769C1046.3 26.338 983.518 13.0698 920.02 6.53772C866.016 0.924248 811.093 3.57802 756.476 2.45532C716.56 1.63882 676.542 -0.708729 636.728 0.209839C587.318 1.4346 537.908 4.19038 488.804 8.68115C444.09 12.7637 399.376 18.6833 355.07 26.5421C304.639 35.5237 255.535 50.3228 209.289 73.0829C199.183 78.084 188.974 82.7789 178.561 86.7594C145.995 98.9049 118.534 119.726 89.6432 138.097C84.5389 141.363 75.2489 143.711 81.2721 153.815C81.6804 154.529 79.0262 157.387 77.597 159.02C46.4604 194.334 26.3492 235.363 14.5071 280.679C13.18 285.986 13.9967 291.804 13.7925 297.316C17.3656 290.681 20.9386 284.047 24.5117 277.413C25.5325 277.822 26.5534 278.332 27.5743 278.74C25.1242 288.334 22.6741 297.826 20.1219 307.42C19.7136 309.053 19.4073 311.094 18.2843 311.911C16.753 313.135 14.405 313.442 12.4654 314.156C12.4654 320.28 17.1614 326.199 12.4654 335.895V314.258C13.0779 308.44 13.5883 302.623 14.2009 296.805" fill="#EFE7D6"/>
<path d="M819.158 288.232C819.158 287.211 819.362 286.293 819.464 285.374C824.16 285.68 828.856 285.884 833.45 286.191C833.45 287.211 833.246 288.232 833.144 289.252C828.448 288.946 823.752 288.64 819.158 288.334M205.717 605.342C207.044 604.423 208.473 603.403 209.8 602.484C218.682 620.345 227.461 638.104 236.241 655.965C237.67 658.721 238.385 661.885 239.405 664.845C238.385 665.355 237.262 665.763 236.241 666.274C226.032 645.963 215.925 625.652 205.717 605.444M587.42 246.896C588.339 247.509 589.156 248.631 590.075 248.733C598.344 249.856 606.715 250.673 614.984 251.897C623.661 253.122 633.564 248.835 640.608 256.49C644.895 261.083 651.123 260.675 656.023 265.063C661.842 270.167 672.867 269.452 681.647 270.983C682.77 271.187 684.199 269.452 686.036 268.33C683.586 266.492 681.647 264.961 679.605 263.533C686.955 258.327 689.099 258.327 720.44 264.859C734.63 267.819 748.616 271.085 762.704 274.249C762.704 275.066 762.602 275.882 762.5 276.801C757.395 278.127 752.291 279.556 743.614 281.802C753.516 283.027 760.866 286.19 766.277 284.149C779.65 278.842 789.757 283.026 799.761 291.192C801.701 292.722 804.458 293.845 806.908 293.845C821.914 294.049 836.921 293.947 851.009 293.947C848.865 292.212 845.292 289.457 841.719 286.599C858.359 285.986 874.081 287.926 889.802 290.171C893.579 290.681 897.255 291.906 900.93 292.825C887.148 298.03 874.285 288.13 861.014 296.703C887.965 300.173 915.018 303.745 941.969 307.216C942.071 306.297 942.275 305.276 942.479 304.358C940.54 303.643 938.498 302.929 932.781 300.786C940.948 301.194 945.44 301.398 949.932 301.5C955.546 301.602 953.709 309.053 956.873 309.665C972.697 312.727 988.725 314.87 1004.75 317.422C1001.08 315.074 997.3 312.727 992.706 309.869C1002.91 303.949 1011.39 311.094 1020.17 312.013C1028.95 312.931 1037.73 315.074 1046.4 316.911C1062.84 320.28 1063.86 320.79 1069.68 329.465H1059.27C1080.4 335.589 1101.53 341.713 1122.66 347.837C1123.07 346.918 1123.38 345.999 1123.79 345.081C1120.72 343.04 1117.66 340.998 1114.6 339.059C1122.77 333.242 1131.24 335.589 1137.87 340.488C1151.66 350.694 1167.07 353.45 1183.51 353.96C1186.67 353.96 1190.04 355.083 1193 356.41C1197.9 358.655 1202.29 362.023 1207.29 363.758C1229.14 371.107 1251.09 377.945 1272.94 385.192C1276.41 386.314 1282.63 389.274 1282.33 390.499C1280.8 398.46 1286.41 397.95 1291 399.685C1317.24 409.483 1343.38 419.587 1369.71 429.385C1416.16 446.736 1457.92 473.068 1499.98 498.38C1514.27 506.953 1526.11 519.507 1539.69 529.509C1593.59 569.518 1627.08 623.815 1650.56 685.257C1664.95 723.021 1666.48 763.336 1672.81 802.63C1675.36 818.143 1675.87 833.963 1676.28 849.681C1677.61 908.878 1673.63 967.87 1664.85 1026.35C1660.15 1057.28 1650.76 1087.59 1642.8 1118C1639.53 1130.56 1632.89 1141.68 1623.81 1151.38C1597.57 1179.24 1574.19 1210.37 1545.1 1234.77C1503.96 1269.16 1456.18 1293.96 1404.83 1310.39C1377.06 1319.27 1348.58 1326.21 1320.51 1334.28C1289.47 1343.16 1257.72 1346.01 1225.57 1344.48C1202.09 1343.36 1178.4 1341.42 1154.92 1342.44C1141.86 1343.05 1129.5 1342.85 1117.05 1339.38C1104.08 1335.71 1090.91 1332.75 1077.95 1328.87C1062.43 1324.27 1046.81 1319.89 1031.81 1313.97C1016.7 1307.94 1001.89 1300.8 987.704 1292.84C952.892 1273.45 917.468 1254.87 884.29 1232.93C844.986 1207 813.339 1170.47 771.688 1147.3C743.205 1118.92 709.619 1095.65 686.139 1062.28C684.403 1059.83 680.524 1059.01 677.665 1057.28C674.399 1055.34 670.928 1053.4 667.865 1051.15C640.914 1031.76 616.209 1009.92 594.158 985.017C592.014 982.567 588.952 980.832 585.991 979.199C574.966 972.871 563.226 967.564 552.711 960.521C534.743 948.478 517.593 935.21 508.201 913.777C508.711 913.164 510.243 911.429 513.509 907.959C491.05 888.159 468.693 868.767 446.642 848.966C436.536 839.883 425.204 830.493 426.123 815.286C426.939 800.691 421.733 788.953 412.341 778.849C384.982 749.149 357.418 719.653 329.344 690.463C317.094 677.705 307.702 663.518 300.862 647.188C292.899 628.204 283.303 609.833 275.136 590.951C268.909 576.662 261.048 562.271 259.006 547.268C257.577 536.96 257.169 526.447 254.004 516.241C250.227 503.891 245.122 491.541 243.897 478.886C240.324 443.164 237.976 407.339 236.139 371.515C235.322 355.389 242.774 340.998 249.512 326.709C251.043 323.341 254.208 320.382 257.373 318.34C271.359 309.155 285.549 300.377 299.739 291.6C302.087 290.171 304.843 288.946 307.6 288.742C317.706 287.926 326.69 283.945 336.082 280.679C351.497 275.372 369.158 275.78 385.798 275.372C400.703 275.066 416.22 281.802 429.083 267.513C431.227 265.166 440.619 265.574 443.171 268.125C450.011 275.066 457.77 272.922 464.201 270.983C477.268 267.003 492.581 273.126 503.811 261.797C504.424 261.185 507.588 263.533 509.426 263.533C521.778 263.022 534.641 264.043 546.279 260.777C551.077 259.45 554.446 257.103 559.346 259.654C560.98 260.471 564.042 261.389 564.961 260.573C572.209 254.245 579.866 258.838 587.42 259.144C598.65 259.552 609.88 259.144 621.211 259.144C612.125 256.286 602.835 255.163 593.75 253.02C591.198 252.408 589.258 249.244 586.91 247.407C574.864 254.551 562.001 253.53 546.688 252.408C560.878 243.732 573.945 245.365 586.91 247.509M187.954 558.393C201.225 566.966 201.429 581.357 205.921 593.809C204.594 594.319 203.369 594.931 202.042 595.442C197.448 582.99 192.956 570.538 188.566 557.985C186.728 553.596 184.891 549.207 183.053 544.92C184.585 544.614 186.116 544.308 187.647 544.002C187.749 548.799 187.954 553.596 188.056 558.393M360.379 815.082C356.397 814.367 351.089 814.979 348.741 812.53C342.003 805.896 336.388 797.935 330.365 790.586C330.773 790.178 331.284 789.872 331.794 789.464C341.39 798.037 350.885 806.61 360.379 815.082C365.177 821.92 370.077 828.758 374.875 835.596C364.802 829.132 359.936 822.294 360.277 815.082M1725.39 851.11C1724.26 819.674 1723.65 788.239 1721.81 756.803C1719.06 709.957 1713.65 663.314 1696.8 619.12C1683.22 583.296 1664.44 550.126 1643.31 518.078C1616.87 477.865 1581.03 447.756 1541.02 422.343C1512.13 404.073 1483.34 385.09 1452.61 370.393C1406.06 348.143 1358.28 328.547 1308.87 313.237C1262.93 298.948 1217.6 282.312 1171.05 270.065C1117.25 255.98 1062.84 244.345 1008.22 233.73C969.634 226.279 930.433 221.891 891.436 216.89C857.441 212.501 823.139 210.153 789.247 205.254C745.349 198.927 701.86 189.639 657.963 183.821C609.267 177.391 560.367 179.024 511.672 186.679C485.64 190.762 459.199 193.211 432.86 194.64C389.371 196.987 348.23 207.398 310.662 229.137C282.486 245.467 257.373 266.39 232.974 288.232C210.515 308.338 196.427 333.14 184.483 359.982C179.684 370.699 173.661 381.007 169.578 392.03C157.838 423.465 158.45 455.717 164.065 488.275C175.601 554.514 201.327 615.344 234.199 673.418C242.876 688.727 252.575 703.425 262.171 718.224C271.971 733.227 281.567 748.434 292.389 762.825C299.024 771.705 307.498 779.257 315.358 787.116C320.463 792.321 326.588 796.608 331.182 802.222C364.36 842.332 403.459 876.115 444.498 907.755C452.563 913.981 463.385 918.982 467.468 927.249C477.37 947.253 496.257 955.827 512.182 968.176C534.539 985.323 555.467 1003.9 573.23 1025.84C574.966 1027.99 577.007 1030.03 579.253 1031.76C634.176 1074.02 683.076 1123.01 734.936 1168.83C788.838 1216.39 841.923 1265.59 905.422 1300.9C938.294 1319.17 970.757 1338.77 1004.85 1354.28C1052.63 1376.02 1103.37 1389.19 1155.74 1395.11C1190.45 1399.09 1225.06 1403.99 1259.97 1398.58C1277.63 1395.82 1295.39 1392.35 1312.65 1387.66C1348.48 1378.06 1384.21 1368.47 1417.9 1352.14C1483.95 1320.09 1542.24 1278.14 1590.73 1222.82C1607.37 1203.74 1624.42 1185.06 1641.57 1166.38C1668.01 1137.6 1683.84 1103.72 1694.25 1066.05C1713.85 995.631 1722.73 923.983 1725.39 851.11Z" fill="#EFE7D6"/>
<path d="M625.295 353.451C659.8 358.044 694.306 362.432 728.811 367.433C778.936 374.782 829.163 381.11 878.879 390.602C934.619 401.216 989.848 414.586 1045.28 427.14C1085.81 436.326 1126.13 446.532 1166.87 455.31C1194.02 461.127 1219.75 469.599 1243.33 484.908C1273.75 504.708 1307.54 518.589 1335 544.105C1363.08 570.131 1393.81 593.911 1413.92 626.674C1436.58 663.518 1457.1 701.894 1474.97 741.188C1489.36 773.032 1495.89 807.427 1488.44 843.149C1483.03 868.869 1475.99 893.467 1465.57 917.962C1454.85 943.069 1440.77 965.625 1427.09 988.691C1420.76 999.306 1413.82 1009.72 1405.55 1018.7C1384.62 1041.36 1362.87 1063.3 1341.33 1085.35C1322.24 1105.04 1299.58 1119.13 1274.06 1129.23C1262.62 1133.72 1251.8 1140.05 1240.57 1145.15C1226.89 1151.48 1213.42 1158.63 1199.23 1163.42C1185.45 1168.02 1170.85 1169.85 1156.66 1173.22C1132.97 1178.84 1108.78 1181.49 1084.79 1179.65C1060.19 1177.71 1037.01 1169.34 1014.65 1157.71C974.739 1136.99 937.783 1112.7 907.361 1079.32C905.83 1077.69 903.788 1076.57 901.951 1075.24C870.406 1054.42 834.267 1039.72 810.889 1007.88C810.277 1007.06 809.051 1006.65 808.133 1005.94C779.855 985.732 755.354 961.339 730.444 937.15C699.002 906.837 665.109 879.076 631.624 851.008C615.494 837.434 596.914 826.717 580.887 813.041C558.632 793.955 537.194 773.951 516.266 753.334C484.108 721.694 455.626 686.789 437.965 645.045C421.018 605.036 409.585 563.395 413.26 518.895C417.037 473.477 433.167 434.183 470.02 406.319C515.653 371.72 567.003 352.226 625.703 353.247M661.74 329.262C634.278 327.016 607.021 327.016 579.866 332.426C574.353 333.548 568.738 334.161 563.532 336.1C535.152 346.715 506.261 355.9 480.025 371.72C429.287 402.339 399.274 447.145 387.432 504.504C382.225 529.408 380.388 554.821 384.165 580.031C390.29 621.673 404.582 660.559 427.552 695.872C455.932 739.453 491.969 776.094 528.924 812.633C579.355 862.439 638.974 901.223 689.508 950.724C718.807 979.404 747.595 1008.7 775.669 1038.7C801.803 1066.67 827.835 1094.63 858.359 1117.9C870.814 1127.4 884.086 1135.97 897.357 1144.24C916.855 1156.38 936.558 1168.22 956.465 1179.75C961.672 1182.71 967.899 1183.73 973.718 1185.88C979.435 1188.02 985.56 1189.65 990.869 1192.61C1017.82 1207.72 1046.91 1215.68 1077.44 1218.23C1086.22 1218.95 1095.2 1216.29 1104.08 1215.68C1129.4 1213.94 1154.21 1209.96 1178.3 1201.6C1204.74 1192.41 1231.49 1184.24 1257.72 1174.55C1268.14 1170.67 1277.33 1163.63 1287.33 1158.73C1295.8 1154.54 1304.89 1151.48 1313.57 1147.71C1324.39 1143.01 1335.41 1138.72 1345.62 1132.91C1365.02 1121.78 1385.33 1112.7 1402.99 1098.21C1424.74 1080.55 1441.38 1059.01 1458.22 1037.17C1467.82 1024.72 1477.52 1012.47 1487.42 1000.33C1501.41 983.18 1512.33 964.298 1519.58 943.375C1520.39 940.926 1520.7 937.762 1520.09 935.312C1516.52 921.228 1520.09 907.551 1522.64 893.875C1524.38 884.587 1526.01 875.299 1528.05 866.114C1534.38 836.617 1529.58 806.917 1528.66 777.319C1528.36 766.602 1522.84 756.09 1519.58 745.577C1515.19 731.39 1510.8 717.306 1506.41 703.221C1505.9 701.69 1505.9 699.751 1504.88 698.832C1494.97 690.157 1489.46 678.011 1481.19 668.009C1472.82 657.803 1467.51 644.943 1461.69 632.797C1451.59 611.874 1436.99 594.116 1422.59 576.152C1399.42 547.269 1377.37 517.568 1347.77 494.4C1328.37 479.295 1306.52 469.496 1284.78 459.086C1279.26 456.432 1273.04 455.106 1267.52 452.35C1231.28 434.081 1192.39 422.956 1154.21 409.687C1144.31 406.217 1133.38 404.891 1122.77 404.278C1065.9 401.318 1011.18 386.927 956.057 373.965C921.654 365.902 886.433 360.697 851.52 354.88C801.701 346.613 751.781 338.754 701.86 331.405C688.589 329.466 674.909 329.874 661.434 329.16" fill="#EFE7D6"/>
<path d="M1315.3 724.654C1291.72 674.95 1252.52 640.452 1208.93 609.629C1169.62 581.868 1126.44 561.864 1081.93 544.207C1027.01 522.467 972.084 500.728 914.201 487.664C864.791 476.539 815.177 466.843 764.337 464.087C753.72 463.475 743.103 461.536 732.486 461.23C698.695 460.209 666.538 468.578 635.707 481.234C613.963 490.113 607.633 510.934 606.715 532.47C606 547.677 609.267 562.782 617.026 576.357C632.339 603.301 647.754 629.94 669.907 652.292C677.257 659.742 682.974 669.234 688.078 678.522C705.229 709.549 721.971 740.78 738.407 772.114C748.309 790.995 758.008 809.979 766.787 829.473C806.397 917.86 875.204 973.995 963.203 1009.21C999.035 1023.5 1035.48 1034.21 1056.71 1032.58C1132.05 1029.93 1187.59 1019.41 1240.17 996.142C1266.4 984.507 1291.52 970.014 1312.44 950.01C1332.86 930.516 1346.23 906.429 1348.58 877.647C1353.07 823.349 1338.37 773.236 1315.3 724.654ZM1374.92 889.078C1370.02 925.31 1350.22 954.296 1321.02 975.628C1301.11 990.223 1279.47 1002.57 1258.13 1014.92C1227 1033.09 1191.88 1038.8 1157.37 1046.97C1117.46 1056.46 1077.23 1058.4 1036.71 1056.46C1021.7 1055.75 1006.28 1053.4 991.991 1048.81C969.022 1041.46 946.563 1032.17 924.41 1022.58C848.661 990.121 790.063 938.068 753.618 864.277C730.955 818.348 706.964 773.236 682.872 728.125C671.336 706.589 659.187 686.279 641.22 669.438C632.747 661.477 626.111 651.373 619.169 641.881C600.589 616.263 584.46 589.727 579.049 557.577C572.822 520.528 592.627 479.193 628.357 465.312C665.517 450.819 704.31 440.817 759.845 444.899C799.966 445.92 853.663 455.514 907.055 466.741C975.453 481.132 1040.79 505.933 1104.8 533.388C1149.21 552.372 1192.59 574.213 1232.92 601.056C1266.3 623.306 1296.72 649.026 1318.67 683.319C1342.76 720.98 1361.14 761.193 1370.53 805.182C1376.45 832.841 1378.7 861.215 1374.92 889.078Z" fill="#EFE7D6"/>
</svg>
