<svg width="26" height="37" viewBox="0 0 26 37" fill="none" xmlns="http://www.w3.org/2000/svg">
<rect x="12.9637" y="0.707107" width="17.3334" height="17.3334" transform="rotate(45 12.9637 0.707107)" fill="black" stroke="black"/>
<path d="M13.0356 33.5V9.5" stroke="black"/>
<path opacity="0.5" d="M13.0363 30.5C15.4756 30.5 17.6613 30.8855 19.2189 31.4912C19.9992 31.7947 20.5966 32.1438 20.9904 32.5059C21.3837 32.8675 21.5363 33.2039 21.5363 33.5C21.5363 33.7961 21.3837 34.1325 20.9904 34.4941C20.5966 34.8562 19.9992 35.2053 19.2189 35.5088C17.6613 36.1145 15.4756 36.5 13.0363 36.5C10.5969 36.5 8.41121 36.1145 6.85364 35.5088C6.07329 35.2053 5.47594 34.8562 5.08215 34.4941C4.68879 34.1325 4.53625 33.7961 4.53625 33.5C4.53625 33.2039 4.68879 32.8675 5.08215 32.5059C5.47594 32.1438 6.07329 31.7947 6.85364 31.4912C8.41121 30.8855 10.5969 30.5 13.0363 30.5Z" fill="black" stroke="black"/>
</svg>
